<svg width="50" height="50" viewBox="0 0 50 50" fill="none" xmlns="http://www.w3.org/2000/svg">
<mask id="mask0_64_147" style="mask-type:alpha" maskUnits="userSpaceOnUse" x="0" y="0" width="50" height="50">
<rect width="50" height="50" fill="#D9D9D9"/>
</mask>
<g mask="url(#mask0_64_147)">
<path d="M24.9999 24.3591C22.9948 24.3591 21.2782 23.6451 19.8503 22.2172C18.4223 20.7892 17.7083 19.0727 17.7083 17.0675C17.7083 15.0623 18.4223 13.3457 19.8503 11.9178C21.2782 10.4899 22.9948 9.77588 24.9999 9.77588C27.0051 9.77588 28.7217 10.4899 30.1496 11.9178C31.5776 13.3457 32.2916 15.0623 32.2916 17.0675C32.2916 19.0727 31.5776 20.7892 30.1496 22.2172C28.7217 23.6451 27.0051 24.3591 24.9999 24.3591ZM9.375 40.2244V35.5931C9.375 34.5728 9.65212 33.628 10.2064 32.7586C10.7606 31.8892 11.5011 31.2208 12.4279 30.7534C14.4872 29.7438 16.5645 28.9866 18.6598 28.4818C20.7552 27.977 22.8686 27.7246 24.9999 27.7246C27.1313 27.7246 29.2447 27.977 31.34 28.4818C33.4354 28.9866 35.5127 29.7438 37.572 30.7534C38.4988 31.2208 39.2393 31.8892 39.7935 32.7586C40.3478 33.628 40.6249 34.5728 40.6249 35.5931V40.2244H9.375ZM12.4999 37.0995H37.4999V35.5931C37.4999 35.1711 37.3777 34.7804 37.1333 34.4212C36.889 34.062 36.5571 33.7688 36.1378 33.5418C34.3429 32.6577 32.5127 31.988 30.6472 31.5325C28.7818 31.0772 26.8993 30.8495 24.9999 30.8495C23.1006 30.8495 21.2181 31.0772 19.3527 31.5325C17.4872 31.988 15.657 32.6577 13.8621 33.5418C13.4428 33.7688 13.1109 34.062 12.8666 34.4212C12.6222 34.7804 12.4999 35.1711 12.4999 35.5931V37.0995ZM24.9999 21.2342C26.1458 21.2342 27.1267 20.8262 27.9427 20.0102C28.7586 19.1942 29.1666 18.2133 29.1666 17.0675C29.1666 15.9217 28.7586 14.9408 27.9427 14.1248C27.1267 13.3088 26.1458 12.9008 24.9999 12.9008C23.8541 12.9008 22.8732 13.3088 22.0572 14.1248C21.2413 14.9408 20.8333 15.9217 20.8333 17.0675C20.8333 18.2133 21.2413 19.1942 22.0572 20.0102C22.8732 20.8262 23.8541 21.2342 24.9999 21.2342Z" fill="#1C1B1F"/>
</g>
</svg>
