<svg width="85" height="57" viewBox="0 0 85 57" fill="none" xmlns="http://www.w3.org/2000/svg">
<path d="M13.7406 46.2L28.7906 42.25C28.7906 40.05 28.224 38.8333 27.0906 38.6V38.35L26.8906 38.6L19.6406 38.35C16.774 38.35 14.6073 38.7167 13.1406 39.45V40.85L13.3906 41.95L13.1406 42.25C13.1406 42.45 13.3406 43.7667 13.7406 46.2ZM11.6406 15.8C10.574 15.8 9.85729 14.3833 9.49063 11.55C13.0573 6.75 15.3906 3.28333 16.4906 1.15L18.3406 0.549998L23.5406 6.35C24.8406 7.11666 26.0573 8.65 27.1906 10.95C26.9906 12.35 26.6906 13.05 26.2906 13.05H24.7406L18.3406 6.65H17.7406C17.7406 7.21666 16.524 9.05 14.0906 12.15C13.424 14.5833 12.6073 15.8 11.6406 15.8ZM11.7406 51.45C11.4073 51.45 11.0406 50.25 10.6406 47.85H10.8906L10.6406 47.55V39.15L10.8906 38.9L10.6406 38C10.774 37.3667 11.3406 36.8167 12.3406 36.35L12.5906 36.65H12.9406L14.5406 36.05L15.6906 36.35C16.1573 36.2167 16.674 36.1 17.2406 36C16.6406 33.8 16.0573 32.1167 15.4906 30.95L15.9906 30.1C15.6573 30.0667 15.174 28.25 14.5406 24.65C9.47396 25.0167 5.45729 25.7333 2.49063 26.8C1.02396 26.1 0.207292 25.4 0.0406251 24.7L0.0906251 24.45C0.290625 22.75 2.19063 21.9 5.79063 21.9C8.39063 21.2 12.124 20.4 16.9906 19.5L17.2406 19.9C17.4406 19.9 19.1573 19.7333 22.3906 19.4V19.65L29.8906 19.2L29.7906 19.45L30.1406 19.25L32.1906 19.5L32.4406 19.7L33.3906 19.6C34.0573 19.9667 34.3906 20.2833 34.3906 20.55L34.3406 21.25C33.4406 23.45 32.174 24.55 30.5406 24.55L29.9906 24.5C29.9906 24.6667 29.5406 24.75 28.6406 24.75C27.974 24.75 27.0406 24.7 25.8406 24.6L25.6406 24.3L25.2906 24.25C24.7906 24.3833 24.1906 24.45 23.4906 24.45C22.6573 24.45 21.5906 24.3333 20.2906 24.1C19.924 24.9 19.7406 25.35 19.7406 25.45C19.7406 26.2167 20.1073 28.0833 20.8406 31.05C21.5406 32.8167 21.974 34.2667 22.1406 35.4C23.8406 35.3 26.2573 35.25 29.3906 35.25C31.0573 35.25 32.1573 35.9833 32.6906 37.45L32.4906 38.6L32.6906 38.9H33.0406L32.6906 39.15C32.6906 39.35 32.9073 40.6667 33.3406 43.1L29.9406 45.65H28.5406C20.5073 46.5833 16.4906 47.4167 16.4906 48.15C14.024 49.55 12.4406 50.65 11.7406 51.45ZM44.6234 43.9L42.1234 55.2H38.0234L39.6234 43.9H44.6234ZM60.9828 30.7C59.5495 29.8333 58.7161 29.3167 58.4828 29.15C58.4828 25.8167 58.9161 22.3 59.7828 18.6C59.4161 17.1667 58.8828 16.45 58.1828 16.45L57.8828 16.7L56.9328 16.45L53.0328 16.7C51.4995 16.7 49.9161 15.8667 48.2828 14.2V13.85C48.9161 12.6167 49.5495 12 50.1828 12L53.9328 12.3L54.8828 12V12.3L55.1828 12C60.6495 12 64.0495 12.9333 65.3828 14.8L65.4828 17.1L63.8328 24.55L63.1828 28.45V29.4C63.1828 29.9667 62.4495 30.4 60.9828 30.7ZM81.8328 32.05C81.1995 31.75 80.6828 31.1833 80.2828 30.35C79.8828 29.4833 79.5828 28.8 79.3828 28.3C79.3828 27.2667 79.4161 26.2333 79.4828 25.2L78.6828 25.15C77.6161 25.3833 76.4828 25.5333 75.2828 25.6C74.4828 25.8667 73.3661 26 71.9328 26L71.6328 25.75L71.4328 26H70.4828C70.0495 24.9667 69.8328 24 69.8328 23.1C70.2661 22.7 71.0328 22.3667 72.1328 22.1L72.3328 21.85H73.7328L74.9328 21.45C76.7995 21.45 78.2828 21.5333 79.3828 21.7C79.4161 20.8 79.5328 19.9167 79.7328 19.05L79.4828 18.35L79.7328 16.3L77.6328 15.3L77.3828 15.55C77.2495 15.55 76.6328 15.4667 75.5328 15.3L72.7328 15.35C71.4661 14.9167 70.4661 14.0333 69.7328 12.7V12.45C69.7328 11.3833 72.7495 10.7333 78.7828 10.5L79.7328 10.75V10.5C79.9328 5.4 80.5495 2.85 81.5828 2.85H82.0328C83.8661 2.98333 84.7828 5.01666 84.7828 8.95V9.6C84.7828 11.0667 84.8328 12.5333 84.9328 14C84.9661 15.3 84.9828 16.9833 84.9828 19.05L84.7828 19.35L84.9828 19.6L84.7328 23L84.9828 23.25C84.9828 26.2167 84.7495 28.15 84.2828 29.05L84.5328 29.25V29.55C84.2995 30.0833 84.0495 30.35 83.7828 30.35C83.9828 30.4833 84.0828 30.6667 84.0828 30.9C83.5161 31.4667 82.7661 31.85 81.8328 32.05ZM63.5828 56.35C62.2495 56.35 61.4495 55.0167 61.1828 52.35L61.6328 51.25L61.3828 51.05L61.8328 49.1L61.6328 48.45L62.9328 45.6C65.2328 43.6667 66.8495 42.7 67.7828 42.7V42.9L73.7328 40.75V40.95C75.1661 40.3167 75.8828 39.6 75.8828 38.8V37.25C75.1828 36.1833 74.0161 35.65 72.3828 35.65C71.9161 35.65 70.8328 35.8333 69.1328 36.2C67.0661 35.6 66.0328 35.1333 66.0328 34.8C66.2661 33.6333 68.9661 33.05 74.1328 33.05L78.3328 33.9L78.9828 35L78.5328 37.9L78.9828 38.3L78.7328 38.5L79.1828 41.15C79.1828 42.95 76.7828 44.05 71.9828 44.45L66.9328 46.9C66.2328 46.9 65.7161 48.2167 65.3828 50.85C66.8161 51.45 67.9161 51.75 68.6828 51.75L69.9328 51.45L70.2328 51.75C70.3661 51.75 70.8495 51.65 71.6828 51.45H73.0328L73.9328 52.35V52.8C73.9328 53.0667 73.7161 53.2 73.2828 53.2L73.4828 54.35L72.1828 55.45H70.8328L63.5828 56.35Z" fill="black"/>
</svg>
