<svg width="48" height="48" viewBox="0 0 48 48" fill="none" xmlns="http://www.w3.org/2000/svg">
<path fill-rule="evenodd" clip-rule="evenodd" d="M9.57823 30.5808L9.76396 6.16765L12.8543 6.19116L12.6686 30.6043L9.57823 30.5808Z" fill="#B48F71"/>
<path d="M29.3523 35.5548L24.3469 35.9626L13.1567 30.8665C12.8362 30.7376 12.5106 30.706 12.18 30.7717C11.8495 30.8374 11.5663 31.009 11.3305 31.2866L11.1183 31.5365L20.9189 38.6061L38.9068 38.6523L39.1577 41.7326L19.9314 41.7097L6.59062 32.0991L8.99555 29.2676C9.70288 28.4348 10.5994 27.9419 11.6851 27.7888C12.7708 27.6358 13.8223 27.7762 14.8395 28.2101L18.827 30.0558C19.209 29.3528 19.718 28.7817 20.354 28.3423C20.9901 27.9029 21.7059 27.6507 22.5017 27.5859L32.2045 26.7955L38.1853 29.7965L38.477 33.3773L31.5699 29.9479L22.7526 30.6662C22.5216 30.685 22.3076 30.7541 22.1106 30.8735C21.9136 30.9929 21.7583 31.1477 21.6446 31.3378L24.9045 32.8164L29.1014 32.4745L29.3523 35.5548Z" fill="#8F6C4E"/>
<path fill-rule="evenodd" clip-rule="evenodd" d="M39.122 17.3094L38.9362 41.7226L35.8459 41.6991L36.0316 17.2859L39.122 17.3094Z" fill="#8F6C4E"/>
<path d="M19.3479 12.3377L24.3533 11.9299L35.5435 17.0259C35.864 17.1548 36.1896 17.1864 36.5202 17.1208C36.8507 17.0551 37.1339 16.8834 37.3697 16.6058L37.5819 16.356L27.7813 9.28635L9.79341 9.24016L9.54247 6.15989L28.7687 6.18271L42.1096 15.7933L39.7046 18.6249C38.9973 19.4577 38.1008 19.9506 37.0151 20.1036C35.9294 20.2567 34.8779 20.1162 33.8607 19.6823L29.8732 17.8367C29.4912 18.5396 28.9822 19.1108 28.3462 19.5502C27.7101 19.9896 26.9943 20.2417 26.1985 20.3065L16.4957 21.097L10.5149 18.0959L10.2231 14.5151L17.1303 17.9446L25.9476 17.2263C26.1786 17.2075 26.3926 17.1383 26.5896 17.0189C26.7866 16.8995 26.9419 16.7448 27.0556 16.5546L23.7957 15.076L19.5988 15.4179L19.3479 12.3377Z" fill="#B48F71"/>
</svg>
